<svg xmlns="http://www.w3.org/2000/svg" viewBox="0 0 64 64" fill="none">
  <defs>
    <linearGradient id="bg" x1="8" y1="6" x2="56" y2="58" gradientUnits="userSpaceOnUse">
      <stop offset="0" stop-color="#0B132B" />
      <stop offset="1" stop-color="#111827" />
    </linearGradient>
    <linearGradient id="frame" x1="6" y1="6" x2="58" y2="58" gradientUnits="userSpaceOnUse">
      <stop offset="0" stop-color="#67E8F9" stop-opacity="0.38" />
      <stop offset="1" stop-color="#A78BFA" stop-opacity="0.28" />
    </linearGradient>
    <linearGradient id="orbit" x1="14" y1="40" x2="50" y2="12" gradientUnits="userSpaceOnUse">
      <stop offset="0" stop-color="#22D3EE" stop-opacity="0.20" />
      <stop offset="1" stop-color="#C4B5FD" stop-opacity="0.70" />
    </linearGradient>
    <linearGradient id="laneL" x1="18" y1="16" x2="31" y2="48" gradientUnits="userSpaceOnUse">
      <stop offset="0" stop-color="#67E8F9" />
      <stop offset="1" stop-color="#60A5FA" />
    </linearGradient>
    <linearGradient id="laneR" x1="46" y1="16" x2="33" y2="48" gradientUnits="userSpaceOnUse">
      <stop offset="0" stop-color="#A78BFA" />
      <stop offset="1" stop-color="#60A5FA" />
    </linearGradient>
    <radialGradient id="coreGlow" cx="0" cy="0" r="1" gradientUnits="userSpaceOnUse" gradientTransform="translate(32 48) rotate(90) scale(10)">
      <stop offset="0" stop-color="#FFFFFF" stop-opacity="0.95" />
      <stop offset="0.32" stop-color="#C4B5FD" stop-opacity="0.65" />
      <stop offset="1" stop-color="#60A5FA" stop-opacity="0" />
    </radialGradient>
  </defs>

  <rect x="4" y="4" width="56" height="56" rx="18" fill="url(#bg)" />
  <rect x="6.5" y="6.5" width="51" height="51" rx="15.5" stroke="url(#frame)" stroke-width="1.5" />
  <path d="M14 40C16 24 28 11 50 12" stroke="url(#orbit)" stroke-width="2.4" stroke-linecap="round" opacity="0.9" />
  <path d="M18 16C21 28 25 38 31 48" stroke="url(#laneL)" stroke-width="4.5" stroke-linecap="round" stroke-linejoin="round" />
  <path d="M46 16C43 28 39 38 33 48" stroke="url(#laneR)" stroke-width="4.5" stroke-linecap="round" stroke-linejoin="round" />
  <path d="M18 16Q32 6 46 16" stroke="#E2E8F0" stroke-opacity="0.18" stroke-width="2.2" stroke-linecap="round" />
  <circle cx="18" cy="16" r="4.3" fill="#0EA5E9" stroke="#E0F2FE" stroke-width="1.4" />
  <circle cx="46" cy="16" r="4.3" fill="#8B5CF6" stroke="#F5F3FF" stroke-width="1.4" />
  <circle cx="32" cy="48" r="8" fill="url(#coreGlow)" />
  <circle cx="32" cy="48" r="4.8" fill="#F8FAFC" stroke="#60A5FA" stroke-width="1.3" />
  <path d="M52 8L53.4 11.6L57 13L53.4 14.4L52 18L50.6 14.4L47 13L50.6 11.6Z" fill="#FDE68A" opacity="0.92" />
</svg>